<svg xmlns="http://www.w3.org/2000/svg" xmlns:xlink="http://www.w3.org/1999/xlink" viewBox="0 0 300 300">
  <defs>
    <style>
      .cls-1 {
        fill: url(#radial-gradient);
      }

      .cls-2 {
        fill: url(#linear-gradient);
      }

      .cls-3 {
        fill: url(#linear-gradient-2);
      }

      .cls-4 {
        fill: url(#linear-gradient-3);
      }

      .cls-5 {
        fill: url(#linear-gradient-4);
      }

      .cls-6 {
        fill: url(#linear-gradient-5);
      }

      .cls-7 {
        fill: url(#linear-gradient-6);
      }

      .cls-8 {
        fill: url(#radial-gradient-2);
      }

      .cls-9 {
        fill: url(#linear-gradient-7);
      }

      .cls-10 {
        fill: url(#linear-gradient-8);
      }

      .cls-11 {
        fill: none;
      }

      .cls-12 {
        fill: url(#radial-gradient-3);
      }

      .cls-13 {
        fill: #f9ed32;
      }

      .rotate {
        animation: rotation 60s infinite linear;
        transform-box: fill-box;
        transform-origin: center;
      }

      .rotate-rev {
        animation: rotation 60s infinite linear;
        transform-box: fill-box;
        transform-origin: center;
        animation-direction: reverse;
      }

      @keyframes rotation {
        from {
          transform: rotate(0deg);
        }

        to {
          transform: rotate(360deg);
        }
      }

      #moon,
      #fireflies {
        display: none;
      }

      @media (prefers-color-scheme: dark) {

        #moon,
        #fireflies {
          display: unset;
        }

        #sun {
          display: none;
        }

        .rotate,
        .rotate-rev {
          animation-play-state: paused;
        }
      }
    </style>
    <radialGradient id="radial-gradient" cx="95.13" cy="212.95" r="77.27" gradientUnits="userSpaceOnUse">
      <stop offset="0" stop-color="#00aeef" />
      <stop offset="0.64" stop-color="#00b0ef" />
      <stop offset="0.87" stop-color="#00b7ef" />
      <stop offset="1" stop-color="#00bfef" />
    </radialGradient>
    <linearGradient id="linear-gradient" x1="212.92" y1="80.9" x2="211.66" y2="116.81" gradientUnits="userSpaceOnUse">
      <stop offset="0" stop-color="#ec008c" />
      <stop offset="0.28" stop-color="#ec038b" />
      <stop offset="0.48" stop-color="#ed0c89" />
      <stop offset="0.65" stop-color="#ee1b84" />
      <stop offset="0.8" stop-color="#ef317e" />
      <stop offset="0.95" stop-color="#f04d76" />
      <stop offset="1" stop-color="#f15a72" />
    </linearGradient>
    <linearGradient id="linear-gradient-2" x1="244.87" y1="71.9" x2="243.72" y2="105.02"
      xlink:href="#linear-gradient" />
    <linearGradient id="linear-gradient-3" x1="244.87" y1="71.9" x2="243.72" y2="105.02"
      gradientTransform="translate(52.67 270.21) rotate(-72)" xlink:href="#linear-gradient" />
    <linearGradient id="linear-gradient-4" x1="244.87" y1="71.9" x2="243.72" y2="105.02"
      gradientTransform="translate(325.93 303.62) rotate(-144)" xlink:href="#linear-gradient" />
    <linearGradient id="linear-gradient-5" x1="244.87" y1="71.9" x2="243.72" y2="105.02"
      gradientTransform="translate(442.14 54.05) rotate(144)" xlink:href="#linear-gradient" />
    <linearGradient id="linear-gradient-6" x1="244.87" y1="71.9" x2="243.72" y2="105.02"
      gradientTransform="translate(240.71 -133.59) rotate(72)" xlink:href="#linear-gradient" />
    <radialGradient id="radial-gradient-2" cx="244.29" cy="218.95" r="42.51" gradientUnits="userSpaceOnUse">
      <stop offset="0" stop-color="#12c766" />
      <stop offset="0.37" stop-color="#15c868" />
      <stop offset="0.64" stop-color="#1eca6e" />
      <stop offset="0.86" stop-color="#2dce79" />
      <stop offset="1" stop-color="#3bd183" />
    </radialGradient>
    <linearGradient id="linear-gradient-7" x1="75.09" y1="6.95" x2="75.09" y2="107.5" gradientUnits="userSpaceOnUse">
      <stop offset="0.2" stop-color="#ffbb37" />
      <stop offset="0.76" stop-color="#ff7f00" />
      <stop offset="1" stop-color="#ff6800" />
    </linearGradient>
    <linearGradient id="linear-gradient-8" x1="40.37" y1="-0.85" x2="-28.89" y2="-67.32"
      gradientTransform="translate(44.83 73.64) rotate(56.83)" gradientUnits="userSpaceOnUse">
      <stop offset="0" stop-color="#e6e7e8" />
      <stop offset="1" stop-color="#fff" />
    </linearGradient>
    <radialGradient id="radial-gradient-3" cx="0" cy="0" r="8.05" gradientUnits="userSpaceOnUse">
      <stop offset="0" stop-color="#f7a400" />
      <stop offset="0.11" stop-color="#f8a60b" stop-opacity="0.83" />
      <stop offset="0.29" stop-color="#f9a91b" stop-opacity="0.58" />
      <stop offset="0.47" stop-color="#f9ab28" stop-opacity="0.38" />
      <stop offset="0.63" stop-color="#faad32" stop-opacity="0.21" />
      <stop offset="0.78" stop-color="#fbaf3a" stop-opacity="0.1" />
      <stop offset="0.91" stop-color="#fbb03e" stop-opacity="0.03" />
      <stop offset="1" stop-color="#fbb040" stop-opacity="0" />
    </radialGradient>
  </defs>
  <g id="flowers">
    <g class="rotate">
      <path class="cls-1"
        d="M95.13,213s-7.15-67.83-6.7-72.34a8.16,8.16,0,0,1,2-4.74,7.5,7.5,0,0,1,4.74-2h0a7.52,7.52,0,0,1,4.74,2,8.16,8.16,0,0,1,2,4.74C102.27,145.12,95.13,213,95.13,213ZM58,150.48a8.22,8.22,0,0,0-4.38-2.68,7.46,7.46,0,0,0-5,1.2h0A7.47,7.47,0,0,0,46,153.37a8.18,8.18,0,0,0,1.19,5C49.48,162.28,95.13,213,95.13,213S61,153.88,58,150.48ZM28.4,184.22a8.25,8.25,0,0,0-5.12.4,7.49,7.49,0,0,0-3.33,3.9h0a7.53,7.53,0,0,0,.4,5.12,8.21,8.21,0,0,0,3.9,3.33c4.16,1.82,70.88,16,70.88,16S32.83,185.19,28.4,184.22Zm-4.15,44.71a8.21,8.21,0,0,0-3.9,3.33,7.53,7.53,0,0,0-.4,5.12h0a7.53,7.53,0,0,0,3.33,3.9,8.25,8.25,0,0,0,5.12.4c4.43-1,66.73-28.73,66.73-28.73S28.41,227.11,24.25,228.93Zm22.93,38.61a8.18,8.18,0,0,0-1.19,5,7.47,7.47,0,0,0,2.68,4.37h0a7.52,7.52,0,0,0,5,1.2A8.22,8.22,0,0,0,58,275.42C61,272,95.13,213,95.13,213S49.48,263.62,47.18,267.54Zm41.25,17.75a8.16,8.16,0,0,0,2,4.74,7.55,7.55,0,0,0,4.74,2h0a7.57,7.57,0,0,0,4.74-2,8.16,8.16,0,0,0,2-4.74c.44-4.51-6.7-72.34-6.7-72.34S88,280.78,88.43,285.29Zm43.8-9.87a8.18,8.18,0,0,0,4.37,2.68,7.54,7.54,0,0,0,5-1.2h0a7.47,7.47,0,0,0,2.68-4.37,8.14,8.14,0,0,0-1.2-5C140.78,263.62,95.13,213,95.13,213S129.21,272,132.23,275.42Zm29.63-33.74a8.2,8.2,0,0,0,5.11-.4,7.55,7.55,0,0,0,3.34-3.9h0a7.54,7.54,0,0,0-.41-5.12,8.14,8.14,0,0,0-3.9-3.33c-4.16-1.82-70.87-16-70.87-16S157.43,240.71,161.86,241.68ZM166,197a8.14,8.14,0,0,0,3.9-3.33,7.54,7.54,0,0,0,.41-5.12h0a7.52,7.52,0,0,0-3.34-3.9,8.2,8.2,0,0,0-5.11-.4c-4.43,1-66.73,28.73-66.73,28.73S161.84,198.79,166,197Zm-22.93-38.61a8.15,8.15,0,0,0,1.2-5,7.47,7.47,0,0,0-2.68-4.37h0a7.49,7.49,0,0,0-5-1.2,8.18,8.18,0,0,0-4.37,2.68c-3,3.4-37.1,62.47-37.1,62.47S140.78,162.28,143.07,158.36Z" />
    </g>
    <g class="rotate">
      <circle class="cls-2" cx="212.29" cy="98.86" r="17.97" />
      <path class="cls-3"
        d="M239.8,74.63a46.55,46.55,0,0,0-17,9.74,41.07,41.07,0,0,1-10.51,14.49c.8.53,15.86,10.14,36.5,3.43S276,79,276.3,78.06C275.5,77.53,260.44,67.92,239.8,74.63Z" />
      <path class="cls-4"
        d="M197.75,65.21a46.54,46.54,0,0,0,4,19.17,41.07,41.07,0,0,1,10.53,14.48c.76-.6,14.54-12,14.54-33.65s-13.78-33.06-14.54-33.65C211.53,32.15,197.75,43.51,197.75,65.21Z" />
      <path class="cls-5"
        d="M175.79,102.29a46.61,46.61,0,0,0,19.48,2.11,40.94,40.94,0,0,1,17-5.54c-.33-.91-6.87-17.53-27.51-24.23s-35.69,2.9-36.5,3.43C148.62,79,155.15,95.58,175.79,102.29Z" />
      <path class="cls-6"
        d="M204.28,134.63a46.53,46.53,0,0,0,8-17.88,41.08,41.08,0,0,1,0-17.89c-1,0-18.79,1.12-31.54,18.67s-8.28,34.85-8,35.78C173.69,153.27,191.52,152.19,204.28,134.63Z" />
      <path class="cls-7"
        d="M243.84,117.53a46.5,46.5,0,0,0-14.53-13.15,41.12,41.12,0,0,1-17-5.52c-.26.93-4.74,18.21,8,35.77s30.59,18.64,31.55,18.68C252.11,152.38,256.59,135.09,243.84,117.53Z" />
    </g>
    <g class="rotate-rev">
      <path class="cls-8"
        d="M244.29,220.91s-5.09-36-4.78-39.22a5.89,5.89,0,0,1,1.4-3.38,5.36,5.36,0,0,1,3.38-1.4h0a5.36,5.36,0,0,1,3.39,1.4,5.89,5.89,0,0,1,1.4,3.38C249.39,184.91,244.29,220.91,244.29,220.91Zm-27.67-28.19a5.83,5.83,0,0,0-3.52-1,5.24,5.24,0,0,0-3.2,1.77h0a5.33,5.33,0,0,0-1,3.51,5.82,5.82,0,0,0,1.77,3.2c2.33,2.26,33.64,20.72,33.64,20.72S219.33,194.48,216.62,192.72ZM205,225a5.89,5.89,0,0,0-3,2.12,5.41,5.41,0,0,0-.61,3.61h0a5.32,5.32,0,0,0,2.12,3,5.84,5.84,0,0,0,3.61.61c3.21-.41,37.16-13.38,37.16-13.38S208.07,224,205,225Zm18,29.19a5.82,5.82,0,0,0-.2,3.66,5.31,5.31,0,0,0,2.44,2.72h0a5.31,5.31,0,0,0,3.65.21,5.82,5.82,0,0,0,2.73-2.44c1.68-2.76,12.7-37.4,12.7-37.4S224.09,251.12,223,254.16Zm34,4.15a5.82,5.82,0,0,0,2.73,2.44,5.32,5.32,0,0,0,3.65-.21h0a5.31,5.31,0,0,0,2.44-2.72,5.82,5.82,0,0,0-.2-3.66c-1.12-3-21.33-33.25-21.33-33.25S255.32,255.55,257,258.31Zm24.46-24a5.84,5.84,0,0,0,3.61-.61,5.36,5.36,0,0,0,2.12-3h0a5.36,5.36,0,0,0-.62-3.61,5.83,5.83,0,0,0-3-2.12c-3.07-1-39.3-4.06-39.3-4.06S278.25,233.88,281.46,234.29Zm-3.53-34.1a5.75,5.75,0,0,0,1.77-3.2,5.33,5.33,0,0,0-1-3.51h0a5.3,5.3,0,0,0-3.2-1.77,5.83,5.83,0,0,0-3.52,1c-2.71,1.76-27.68,28.19-27.68,28.19S275.61,202.45,277.93,200.19Z" />
    </g>
  </g>
  <g id="sun">
    <circle class="cls-9" cx="75.09" cy="57.22" r="50.28" />
  </g>
  <g id="moon">
    <path class="cls-10"
      d="M117.17,29.71a50.15,50.15,0,0,0-13.09-13.57c.08.13.17.24.25.37A46.75,46.75,0,0,1,26.06,67.66l-.23-.37a50.28,50.28,0,1,0,91.34-37.58Z" />
  </g>
  <g id="fireflies">
    <g>
      <circle class="cls-12" cx="0" cy="0" r="11" />
      <circle class="cls-13" cx="0" cy="0" r="3.5" />
      <animateMotion dur="40s" repeatCount="indefinite"
        path="M207.61,129.37c24.07,10.44,41.56-2,49.56,9.16,7.86,10.92-8.15,24.34-14.8,62.22-4.11,23.43,2.06,48-8.36,55.49-10.41,7.68-37.41-1.64-59.33,3.84-27.78,6.95-34,25-47.69,20.83-15.35-4.68-9.44-27.25-29.5-45-21.48-19-43-6.13-57.16-23.37C27.11,196.48,28.36,164.22,44,149c20.44-19.92,50.9,3.67,78.77-16.78C147.11,114.35,143,82.28,157.41,81,172.7,79.61,176,115.63,207.61,129.37Z" />
    </g>
    <g>
      <circle class="cls-12" cx="0" cy="0" r="11" />
      <circle class="cls-13" cx="0" cy="0" r="3.5" />
      <animateMotion dur="30s" repeatCount="indefinite" keyPoints="1;0" keyTimes="0;1" calcMode="linear"
        path="M90.92,193.14c-.57-9-1.15-20.58,7.8-25.24,9.13-4.73,27.79-2.55,42.85-4.11,14.92-1.4,26.23-6.55,45.61-13.12s46.66-14.93,56.72-11.22c10.23,3.64,3,19.23-1.68,33-4.78,13.88-7,25.88-17.85,35.16s-30.5,15.72-50.29,30.28c-20,14.54-40.2,37.09-61.39,45.54s-43.35,2.81-46.9-10.84S77,237.3,84.38,223.15C91.63,209.07,91.35,202.31,90.92,193.14Z" />
    </g>
    <g>
      <circle class="cls-12" cx="0" cy="0" r="11" />
      <circle class="cls-13" cx="0" cy="0" r="3.5" />
      <animateMotion dur="35s" repeatCount="indefinite" keyPoints="1;0" keyTimes="0;1" calcMode="linear"
        path="M275.09,113.71c5.89,9,13.32,20.72,7.27,29.62s-25.81,15.32-39.69,23.8c-13.84,8.26-21.91,18.74-37.07,34.37s-37,36.71-49.12,37.47c-12.21.91-14.31-18.49-17.85-34.78-3.51-16.51-8.47-29.91-3.27-44.45s20.68-30.15,31.52-54.22c11.05-24.13,17.57-56.65,33.39-75s41-22.69,52.52-10.22,9.89,41.48,11,59.48S269.24,104.44,275.09,113.71Z" />
    </g>
  </g>
</svg>